<svg version="1.2" xmlns="http://www.w3.org/2000/svg" viewBox="0 0 800 800" width="512" height="512" fill="#FFF">
	<path id="Path 0" class="s0" d="m396.6 79.8c-1.4 3.7-5 15.1-8 25.4-3 10.3-9 32.4-13.4 49.3-4.5 16.8-11.1 42.4-14.7 56.9-3.6 14.5-6.7 26.4-6.8 26.5-0.1 0.1-53.3-33.1-118.2-73.8-64.9-40.7-118.2-73.7-118.5-73.3-0.3 0.4 63.5 79.1 141.7 174.8l142.1 174.2c220.7-269.9 284.5-348.5 284.2-348.9-0.3-0.4-53.3 32.3-117.8 72.7-64.4 40.4-117.7 73.7-118.3 73.8-0.7 0.2-4.8-14.5-10-35.2-4.9-19.5-13.6-52.6-19.3-73.4-5.7-20.9-11.9-42-13.7-46.9-2.3-5.9-4-8.9-5.1-8.9-1 0-2.6 2.7-4.2 6.8zm-103.2 304.5c-6.5 6.8-20.7 22.1-31.4 33.9-10.7 11.9-28 31.4-38.5 43.5-10.4 12.1-42.2 50.4-70.5 85.1-28.4 34.7-62.8 77.8-76.5 95.6-13.8 17.9-30.9 40.5-38 50.2-7.2 9.8-15.7 21.5-18.8 26-3.1 4.6-5.6 8.6-5.5 8.9 0.2 0.4 11.3-3.7 24.8-9.1 13.5-5.4 31.9-12.5 41-15.9 9.1-3.3 26.2-9.1 38-12.8 11.8-3.8 26.9-8.3 33.5-10 6.6-1.8 19.2-4.8 28-6.8 8.8-2 25.2-5.1 36.5-6.9 16.5-2.6 24.9-3.2 43.2-3.3 12.6-0.1 22.8-0.5 22.8-1 0-0.5 13-24.8 28.8-53.9 15.9-29.1 36.9-67.3 46.7-84.8 9.8-17.5 20.7-36.6 24.1-42.5 3.5-5.9 6.4-11.2 6.4-11.7 0.1-0.5-10.6-13.5-23.7-29-13.1-15.5-31.3-37.1-40.6-48.1-9.2-10.9-17.1-19.9-17.5-19.9-0.5 0-6.2 5.6-12.8 12.5zm163 32.9c-21.4 25-39.9 46.6-41.2 48.1l-2.2 2.6c7.3 12.3 19.1 33.3 31 54.5 11.8 21.3 33.9 61.5 49 89.4l27.5 50.8c40.6 0.2 49.1 0.8 65.7 3.5 11.5 1.8 29.2 5.2 39.5 7.6 10.4 2.3 25.5 6.2 33.8 8.6 8.2 2.3 23.5 7 34 10.4 10.5 3.4 28.2 9.7 39.5 14 11.3 4.3 27.8 10.9 36.8 14.6 10.6 4.5 16.2 6.3 16.2 5.3-0.1-0.9-2.2-4.6-4.7-8.3-2.6-3.7-8.3-11.7-12.7-17.8-4.5-6-13.4-18.1-20-26.9-6.6-8.7-19.6-25.8-29-37.9-9.4-12.2-30.9-39.4-47.7-60.6-16.9-21.3-47.5-58.5-68-82.8-20.6-24.3-43.3-50.8-50.4-58.8-7.1-8-17.3-19.3-22.5-25.1-5.2-5.7-15.1-16.4-22-23.6-6.9-7.2-12.8-13.1-13.1-13-0.4 0-18.2 20.4-39.5 45.4z"/>
</svg>