<svg version="1.2" xmlns="http://www.w3.org/2000/svg" viewBox="0 0 800 800" width="512" height="512" fill="#FFF">
	<path id="Path 0" class="s0" d="m395.6 137.5c-1.4 3-5 12.4-8 20.8-3 8.3-9 26.4-13.4 40.2-4.5 13.7-11.1 34.7-14.7 46.5-3.6 11.8-6.7 21.6-6.8 21.6-0.1 0.1-53.3-27-118.2-60.2-64.9-33.3-118.2-60.2-118.5-59.9-0.3 0.3 63.5 64.6 141.7 142.8l142.1 142.2c220.7-220.4 284.5-284.6 284.2-284.9-0.3-0.4-53.3 26.4-117.7 59.4-64.5 33-117.8 60.1-118.4 60.2-0.7 0.2-4.8-11.8-10-28.7-4.9-16-13.6-43-19.3-60-5.7-17.1-11.9-34.3-13.7-38.3-2.3-4.8-4-7.3-5.1-7.2-1 0-2.6 2.1-4.2 5.5zm-103.2 248.7c-6.5 5.6-20.7 18.1-31.4 27.7-10.7 9.7-28 25.7-38.5 35.5-10.4 9.9-42.2 41.2-70.5 69.5-28.4 28.4-62.8 63.5-76.5 78.1-13.8 14.6-30.9 33.1-38 41-7.2 8-15.7 17.5-18.8 21.2-3.1 3.8-5.6 7-5.4 7.3 0.1 0.4 11.2-3 24.7-7.4 13.5-4.4 31.9-10.3 41-13 9.1-2.7 26.2-7.4 38-10.5 11.8-3 26.9-6.7 33.5-8.1 6.6-1.5 19.2-4 28-5.6 8.8-1.6 25.2-4.1 36.5-5.6 16.5-2.1 24.9-2.6 43.2-2.7 12.6-0.1 22.8-0.4 22.8-0.9 0-0.4 13-20.2 28.8-44 15.9-23.7 36.9-54.9 46.7-69.2 9.8-14.3 20.7-29.9 24.1-34.8 3.5-4.8 6.4-9 6.4-9.5 0.1-0.4-10.6-11-23.7-23.7-13.1-12.6-31.3-30.3-40.5-39.2-9.3-9-17.2-16.3-17.6-16.3-0.5 0-6.2 4.6-12.8 10.2zm163 26.9c-21.4 20.4-39.9 38.1-41.2 39.3l-2.2 2.1c7.3 10.1 19.1 27.2 31 44.5 11.8 17.4 33.9 50.2 49 73l27.5 41.5c40.6 0.2 49.1 0.7 65.8 2.8 11.4 1.5 29.1 4.3 39.5 6.2 10.3 2 25.5 5.1 33.7 7.1 8.3 1.9 23.5 5.7 34 8.5 10.5 2.8 28.2 7.9 39.5 11.4 11.3 3.6 27.8 8.9 36.8 12 10.6 3.6 16.2 5.1 16.2 4.2-0.1-0.6-2.2-3.7-4.7-6.7-2.6-3-8.3-9.5-12.7-14.5-4.5-5-13.4-14.9-20-22-6.6-7.2-19.6-21.1-29-31-9.4-9.9-30.9-32.2-47.7-49.5-16.9-17.3-47.5-47.7-68-67.6-20.6-19.8-43.3-41.4-50.4-48-7.1-6.5-17.3-15.8-22.5-20.5-5.2-4.7-15.1-13.4-22-19.3-6.9-5.9-12.8-10.7-13.1-10.6-0.4 0-18.2 16.7-39.5 37.1z"/>
</svg>